# xmcd
#
# Track frame offsets: 
#        150
#        26700
#        55461
#        81699
#        120359
#        150773
#        176540
#        200596
#        231827
#        264978
#
# Disc length: 3772 seconds
#
# Revision: 1
# Processed by: cddbd v1.5.2PL0 Copyright (c) Steve Scherf et al.
# Submitted via: ExactAudioCopy v0.95b4
#
DISCID=7e0eba0a
DTITLE=Various Artist - Der Country Fetenmix (It's Country-Time)
DYEAR=1999
DGENRE=Country
TTITLE0=VA - Block 01
TTITLE1=VA - Block 02
TTITLE2=VA - Block 03
TTITLE3=VA - Block 04
TTITLE4=VA - Block 05
TTITLE5=VA - Block 06
TTITLE6=VA - Block 07
TTITLE7=VA - Block 08
TTITLE8=VA - Block 09
TTITLE9=VA - Country Roads
EXTD=
EXTT0=
EXTT1=
EXTT2=
EXTT3=
EXTT4=
EXTT5=
EXTT6=
EXTT7=
EXTT8=
EXTT9=
PLAYORDER=
